<svg xmlns="http://www.w3.org/2000/svg" viewBox="0 0 145.29 122.63"><defs><style>.cls-1,.cls-2{fill:none;stroke-miterlimit:10;}.cls-1{stroke:#ce0e2d;}.cls-2{stroke:#b4a269;}</style></defs><title>Asset 1</title><g id="Layer_2" data-name="Layer 2"><g id="themanorTeaser_SB01_Image" data-name="themanorTeaser_SB01 Image"><path class="cls-1" d="M71.74.5H42.4V4l4.26.19q7,.28,10,3.31a9.55,9.55,0,0,1,.93,1.17c2.18,2.73,3.37,6.68,3.42,12v2.69a20.31,20.31,0,0,1-.57,3.6L30.07,98.17q-3.86,8.82-5.21,11.12a33.22,33.22,0,0,1-3.2,4.53,15.45,15.45,0,0,1-3,2.66c-2.11,1.51-4.34,1.78-7.34,2H.5v3.62h21c5.16-.19,10.12-1.77,13.89-5.46a28.91,28.91,0,0,0,4.34-5.57,91,91,0,0,0,5.36-11.22L75.45,30.15,88.34.5Z"/><path class="cls-2" d="M104.13,119.1c-4.14-.35-5.73-3.08-7.52-6.55-.61-1.18-2-3.92-3.9-8.3L70.34,52l-7.15,16.7L66.43,76l4.09,9.09H62.93v3.57H72l7,17.69c1.54,3.92,2.3,6.7,2.3,8.36,0,3.28-2.42,4.5-7.27,4.5H71.83v2.91h32.3Z"/><path class="cls-2" d="M142.69,119.25a11.22,11.22,0,0,1-6.69-2,22.57,22.57,0,0,1-5.68-6.74q-1.23-2.08-4.73-10.1l-38-88.73-8.77,21L93.59,66l5,11.06H89.32v4.34h11l8.55,21.54q2.8,7.16,2.8,10.18c0,4-1.62,6-7.54,6v3h40.66v-2.88Z"/></g></g></svg>